<svg width="44" height="44" viewBox="0 0 44 42" fill="none" xmlns="http://www.w3.org/2000/svg">
<path fill-rule="evenodd" clip-rule="evenodd" d="M22.8 41.146L22 41.498L21.2 41.146C10.862 34.811 0 20.391 0 12.382C0.026877 9.81548 0.875416 7.32508 2.42117 5.27606C3.96693 3.22704 6.12856 1.72723 8.58904 0.996575C11.0495 0.265923 13.6794 0.342883 16.0929 1.21617C18.5065 2.08945 20.5767 3.71311 22 5.84901C23.4233 3.71311 25.4935 2.08945 27.9071 1.21617C30.3206 0.342883 32.9505 0.265923 35.411 0.996575C37.8714 1.72723 40.0331 3.22704 41.5788 5.27606C43.1246 7.32508 43.9731 9.81548 44 12.382C44 20.391 33.138 34.811 22.8 41.146Z" fill="white"/>
</svg>
