<?xml version="1.0" encoding="UTF-8" standalone="no" ?>
<!DOCTYPE svg PUBLIC "-//W3C//DTD SVG 1.1//EN" "http://www.w3.org/Graphics/SVG/1.1/DTD/svg11.dtd">
<svg xmlns="http://www.w3.org/2000/svg" xmlns:xlink="http://www.w3.org/1999/xlink" version="1.1" width="1080" height="1080" viewBox="0 0 1080 1080" xml:space="preserve">
<desc>Created with Fabric.js 5.2.4</desc>
<defs>
</defs>
<rect x="0" y="0" width="100%" height="100%" fill="transparent"></rect>
<g transform="matrix(1 0 0 1 540 540)" id="d9efc131-0216-4cd3-9fb8-50a73777e8bb"  >
<rect style="stroke: none; stroke-width: 1; stroke-dasharray: none; stroke-linecap: butt; stroke-dashoffset: 0; stroke-linejoin: miter; stroke-miterlimit: 4; fill: rgb(255,255,255); fill-rule: nonzero; opacity: 1; visibility: hidden;" vector-effect="non-scaling-stroke"  x="-540" y="-540" rx="0" ry="0" width="1080" height="1080" />
</g>
<g transform="matrix(1 0 0 1 540 540)" id="a656dd67-2984-49d2-a099-b2318d62b3ec"  >
</g>
<g transform="matrix(23.54 0 0 23.54 540 540)" id="68596769-b147-414a-b55b-4f71e19bddbd"  >
<path style="stroke: rgb(0,0,0); stroke-width: 0; stroke-dasharray: none; stroke-linecap: butt; stroke-dashoffset: 0; stroke-linejoin: miter; stroke-miterlimit: 4; fill: rgb(0,60,118); fill-rule: nonzero; opacity: 1;" vector-effect="non-scaling-stroke"  transform=" translate(-19, -22)" d="M 6.09308 35.1252 L 36.0645 35.1252 C 36.1563 35.1252 36.2452 35.1121 36.3306 35.0917 C 36.3374 35.0917 36.3431 35.0929 36.3499 35.0929 C 36.9897 35.0929 37.5095 34.5737 37.5095 33.9334 L 37.5095 1.15959 C 37.5096 0.519491 36.9897 0 36.3499 0 L 36.0668 0 L 7.94765 0 L 6.09471 0 C 3.00823 0 0.497657 2.51114 0.497657 5.59676 C 0.497657 5.63815 0.5058 5.67742 0.509823 5.71737 C 0.5058 8.56772 0.470452 34.7588 0.5058 38.202 C 0.503596 38.2693 0.495358 38.335 0.495358 38.403 C 0.495358 41.3701 2.81855 43.799 5.74075 43.9826 C 5.79938 43.9916 5.85685 44.0001 5.91768 44.0001 L 36.3498 44.0001 C 36.9896 44.0001 37.5094 43.4809 37.5094 42.8405 L 37.5094 38.4757 C 37.5094 37.8357 36.9895 37.3161 36.3498 37.3161 C 35.7101 37.3161 35.1902 37.8358 35.1902 38.4757 L 35.1902 41.681 L 6.09308 41.681 C 4.33095 41.681 2.89251 40.2819 2.82181 38.5373 C 2.82354 38.5062 2.82919 38.4768 2.82861 38.4451 C 2.82746 38.3941 2.82574 38.3149 2.82459 38.2095 C 2.92594 36.4925 4.35107 35.1252 6.09308 35.1252 Z M 6.88376 5.59676 C 6.88376 4.95667 7.40325 4.43718 8.04335 4.43718 C 8.68344 4.43718 9.20294 4.95667 9.20294 5.59676 L 9.20294 29.1511 C 9.20294 29.7909 8.68344 30.3107 8.04335 30.3107 C 7.40325 30.3107 6.88376 29.7908 6.88376 29.1511 L 6.88376 5.59676 Z" stroke-linecap="round" />
</g>
<g transform="matrix(NaN NaN NaN NaN 0 0)"  >
<g style=""   >
</g>
</g>
</svg>